<?xml version="1.0" encoding="UTF-8" standalone="no"?>
<svg
   xmlns:osb="http://www.openswatchbook.org/uri/2009/osb"
   xmlns:dc="http://purl.org/dc/elements/1.1/"
   xmlns:cc="http://creativecommons.org/ns#"
   xmlns:rdf="http://www.w3.org/1999/02/22-rdf-syntax-ns#"
   xmlns:svg="http://www.w3.org/2000/svg"
   xmlns="http://www.w3.org/2000/svg"
   xmlns:sodipodi="http://sodipodi.sourceforge.net/DTD/sodipodi-0.dtd"
   xmlns:inkscape="http://www.inkscape.org/namespaces/inkscape"
   version="1.1"
   id="svg833"
   width="626"
   height="626"
   viewBox="0 0 626 626"
   sodipodi:docname="logo (1).svg"
   inkscape:version="1.0.2-2 (e86c870879, 2021-01-15)">
  <metadata
     id="metadata839">
    <rdf:RDF>
      <cc:Work
         rdf:about="">
        <dc:format>image/svg+xml</dc:format>
        <dc:type
           rdf:resource="http://purl.org/dc/dcmitype/StillImage" />
        <dc:title />
      </cc:Work>
    </rdf:RDF>
  </metadata>
  <defs
     id="defs837">
    <linearGradient
       id="linearGradient2862"
       osb:paint="solid">
      <stop
         style="stop-color:#00ff00;stop-opacity:1;"
         offset="0"
         id="stop2860" />
    </linearGradient>
  </defs>
  <sodipodi:namedview
     pagecolor="#ffffff"
     bordercolor="#666666"
     borderopacity="1"
     objecttolerance="10"
     gridtolerance="10"
     guidetolerance="10"
     inkscape:pageopacity="0"
     inkscape:pageshadow="2"
     inkscape:window-width="1920"
     inkscape:window-height="1001"
     id="namedview835"
     showgrid="false"
     inkscape:zoom="0.90555116"
     inkscape:cx="190.156"
     inkscape:cy="394.23888"
     inkscape:window-x="-9"
     inkscape:window-y="-9"
     inkscape:window-maximized="1"
     inkscape:current-layer="g841"
     inkscape:document-rotation="0" />
  <g
     inkscape:groupmode="layer"
     inkscape:label="Image"
     id="g841">
    <g
       id="g2981"
       transform="matrix(6.2341269,0,0,6.2397972,-992.04036,-1342.4552)"
       style="stroke-width:0.160334">
      <path
         style="fill:#1c541c;fill-opacity:1;stroke:none;stroke-width:0;stroke-linecap:butt;stroke-linejoin:miter;stroke-miterlimit:4;stroke-dasharray:none;stroke-opacity:1"
         d="m 203.88981,242.55024 v 7.42403 c 2.17142,-0.70413 4.36933,-1.49877 6.4392,-1.85601 2.07353,-0.50452 4.40422,-0.70078 6.68066,-0.13749 3.29294,0.79185 4.7339,2.69806 6.51968,4.09009 1.89485,-2.19631 4.08839,-3.47432 6.51969,-4.02134 2.8199,-0.68242 5.24838,-0.44556 7.64654,-0.13749 2.28506,0.47733 4.03241,1.4139 5.79528,2.3372 l -0.0805,-7.97395 c -1.3645,1.06708 -2.76928,1.9966 -4.34645,2.33719 -2.11543,0.61345 -4.43575,0.35192 -6.76116,0.0687 l -5.15136,-0.89363 c -3.83944,-0.25283 -6.10217,-0.0568 -8.37095,0.13748 l -4.82939,1.03112 c -2.01937,0.10102 -4.07142,0.0345 -6.19773,-0.41245 -1.59435,-0.45508 -2.80329,-1.17348 -3.86354,-1.99347 z"
         id="path867"
         sodipodi:nodetypes="cccccccccccccccc" />
      <circle
         style="fill:#00b200;fill-opacity:1;stroke:none;stroke-width:0.0160334;stroke-miterlimit:4;stroke-dasharray:none;stop-color:#000000"
         id="path859"
         sodipodi:type="arc"
         sodipodi:cx="212.78477"
         sodipodi:cy="261.88901"
         sodipodi:rx="10.003927"
         sodipodi:ry="9.7223167"
         sodipodi:start="0"
         sodipodi:end="6.2752092"
         sodipodi:open="true"
         sodipodi:arc-type="chord"
         d="m 222.7887,261.88901 a 10.003927,9.7223167 0 0 1 -9.98398,9.72229 10.003927,9.7223167 0 0 1 -10.02379,-9.68352 10.003927,9.7223167 0 0 1 9.944,-9.76092 10.003927,9.7223167 0 0 1 10.06345,9.6446 z" />
      <circle
         style="fill:#ffffff;stroke:none;stroke-width:0.0160334;stroke-miterlimit:4;stroke-dasharray:none;stop-color:#000000"
         id="path869"
         sodipodi:type="arc"
         sodipodi:cx="212.76431"
         sodipodi:cy="261.96869"
         sodipodi:rx="8.3825788"
         sodipodi:ry="8.0104551"
         sodipodi:start="0"
         sodipodi:end="6.2752092"
         sodipodi:open="true"
         sodipodi:arc-type="chord"
         d="m 221.14689,261.96869 a 8.3825788,8.0104551 0 0 1 -8.36586,8.01044 8.3825788,8.0104551 0 0 1 -8.39923,-7.97849 8.3825788,8.0104551 0 0 1 8.33237,-8.04226 8.3825788,8.0104551 0 0 1 8.43245,7.94642 z" />
      <circle
         style="fill:#000000;stroke:none;stroke-width:0.0160334;stroke-miterlimit:4;stroke-dasharray:none;stop-color:#000000"
         id="path863"
         sodipodi:type="arc"
         sodipodi:cx="212.84633"
         sodipodi:cy="261.88556"
         sodipodi:rx="3.941541"
         sodipodi:ry="3.6985722"
         sodipodi:start="0"
         sodipodi:end="6.2752092"
         sodipodi:open="true"
         sodipodi:arc-type="chord"
         d="m 216.78787,261.88556 a 3.941541,3.6985722 0 0 1 -3.93368,3.69856 3.941541,3.6985722 0 0 1 -3.94937,-3.68381 3.941541,3.6985722 0 0 1 3.91793,-3.71326 3.941541,3.6985722 0 0 1 3.96499,3.66901 z" />
      <path
         style="fill:#ffffff;stroke:none;stroke-width:0.0160334;stroke-linecap:butt;stroke-linejoin:miter;stroke-miterlimit:4;stroke-dasharray:none;stroke-opacity:1"
         d="m 213.06085,263.99668 -0.13804,-1.17332 c 0.0394,-0.34134 0.2185,-0.62284 0.89725,-0.69019 l 1.00077,-0.069 c 0.11708,-0.58768 -0.21547,-1.1231 -0.62117,-1.44939 -0.435,-0.73476 -1.48595,-0.60553 -2.17409,-0.41411 -1.04243,0.39356 -1.1647,1.06318 -1.31136,1.72547 0.0823,1.15233 0.7982,1.92633 2.34664,2.07056 z"
         id="path865"
         sodipodi:nodetypes="ccccccccc" />
      <circle
         style="fill:#00b200;fill-opacity:1;stroke:none;stroke-width:0.0160334;stroke-miterlimit:4;stroke-dasharray:none;stop-color:#000000"
         id="circle877"
         sodipodi:type="arc"
         sodipodi:cx="-233.86794"
         sodipodi:cy="261.59619"
         sodipodi:rx="10.003927"
         sodipodi:ry="9.7223167"
         sodipodi:start="0"
         sodipodi:end="6.2752092"
         sodipodi:open="true"
         sodipodi:arc-type="chord"
         transform="scale(-1,1)"
         d="m -223.86401,261.59619 a 10.003927,9.7223167 0 0 1 -9.98398,9.7223 10.003927,9.7223167 0 0 1 -10.02379,-9.68353 10.003927,9.7223167 0 0 1 9.944,-9.76091 10.003927,9.7223167 0 0 1 10.06345,9.6446 z" />
      <circle
         style="fill:#ffffff;stroke:none;stroke-width:0.0160334;stroke-miterlimit:4;stroke-dasharray:none;stop-color:#000000"
         id="circle883"
         sodipodi:type="arc"
         sodipodi:cx="-233.8884"
         sodipodi:cy="261.67587"
         sodipodi:rx="8.3825788"
         sodipodi:ry="8.0104551"
         sodipodi:start="0"
         sodipodi:end="6.2752092"
         sodipodi:open="true"
         sodipodi:arc-type="chord"
         transform="scale(-1,1)"
         d="m -225.50582,261.67587 a 8.3825788,8.0104551 0 0 1 -8.36586,8.01044 8.3825788,8.0104551 0 0 1 -8.39923,-7.97849 8.3825788,8.0104551 0 0 1 8.33237,-8.04226 8.3825788,8.0104551 0 0 1 8.43245,7.94642 z" />
      <circle
         style="fill:#000000;stroke:none;stroke-width:0.0160334;stroke-miterlimit:4;stroke-dasharray:none;stop-color:#000000"
         id="circle879"
         sodipodi:type="arc"
         sodipodi:cx="-233.80638"
         sodipodi:cy="261.59274"
         sodipodi:rx="3.941541"
         sodipodi:ry="3.6985722"
         sodipodi:start="0"
         sodipodi:end="6.2752092"
         sodipodi:open="true"
         sodipodi:arc-type="chord"
         transform="scale(-1,1)"
         d="m -229.86484,261.59274 a 3.941541,3.6985722 0 0 1 -3.93368,3.69857 3.941541,3.6985722 0 0 1 -3.94937,-3.68382 3.941541,3.6985722 0 0 1 3.91793,-3.71325 3.941541,3.6985722 0 0 1 3.96499,3.669 z" />
      <path
         style="fill:#ffffff;stroke:none;stroke-width:0.0160334;stroke-linecap:butt;stroke-linejoin:miter;stroke-miterlimit:4;stroke-dasharray:none;stroke-opacity:1"
         d="m 233.59186,263.70386 0.13804,-1.17332 c -0.0394,-0.34134 -0.2185,-0.62284 -0.89725,-0.69019 l -1.00077,-0.069 c -0.11708,-0.58768 0.21547,-1.1231 0.62117,-1.44939 0.435,-0.73476 1.48595,-0.60553 2.17409,-0.41411 1.04243,0.39356 1.1647,1.06318 1.31136,1.72547 -0.0823,1.15233 -0.7982,1.92633 -2.34664,2.07056 z"
         id="path881"
         sodipodi:nodetypes="ccccccccc" />
      <path
         style="fill:#00b200;fill-opacity:1;stroke:none;stroke-width:0.00902231;stroke-linecap:butt;stroke-linejoin:miter;stroke-miterlimit:4;stroke-dasharray:none;stroke-opacity:1"
         d="m 223.25697,266.41576 c -0.98574,1.56117 -2.29438,2.54169 -3.62783,3.47762 l 3.62783,3.37535 3.80479,-3.40943 c -1.49393,-0.96172 -2.78274,-2.02726 -3.80479,-3.44354 z"
         id="path895"
         sodipodi:nodetypes="ccccc" />
      <text
         xml:space="preserve"
         style="font-size:51.9285px;line-height:1.25;font-family:'Berlin Sans FB Demi';-inkscape-font-specification:'Berlin Sans FB Demi';fill:#00b200;fill-opacity:1;stroke:#000000;stroke-width:0.0481004;stroke-miterlimit:4;stroke-dasharray:none"
         x="169.43672"
         y="294.2467"
         id="text899"
         transform="scale(1.0220329,0.97844207)"><tspan
           sodipodi:role="line"
           id="tspan897"
           x="169.43672"
           y="294.2467"
           style="fill:#00b200;fill-opacity:1;stroke:#000000;stroke-width:0.0481004;stroke-miterlimit:4;stroke-dasharray:none">Z</tspan></text>
      <text
         xml:space="preserve"
         style="font-size:17.4374px;line-height:1.25;font-family:'Berlin Sans FB Demi';-inkscape-font-specification:'Berlin Sans FB Demi';fill:#00b200;fill-opacity:1;stroke:#000000;stroke-width:0.0481004;stroke-miterlimit:4;stroke-dasharray:none"
         x="192.42076"
         y="301.40131"
         id="text2868"
         transform="scale(1.0462543,0.95579058)"><tspan
           sodipodi:role="line"
           id="tspan2866"
           x="192.42076"
           y="301.40131"
           style="fill:#00b200;fill-opacity:1;stroke:#000000;stroke-width:0.0481004;stroke-miterlimit:4;stroke-dasharray:none">enica</tspan></text>
    </g>
  </g>
</svg>
